<?xml version="1.0" encoding="utf-8"?>
<svg xmlns="http://www.w3.org/2000/svg" fill="none" height="100%" overflow="visible" preserveAspectRatio="none" style="display: block;" viewBox="0 0 73 38" width="100%">
<g id="Frame 15881">
<g id="Vector">
<path d="M43.4654 9.3578L36.1824 2.30417e-05L28.9018 9.3578C27.672 10.9421 27.1926 12.3198 27.1926 13.8172C27.1926 16.1056 28.3624 18.1593 30.4577 19.5957L36.18 23.4683L41.9047 19.5957C44.0024 18.1593 45.1699 16.1032 45.1699 13.8172C45.1723 12.3221 44.6928 10.9421 43.4654 9.3578ZM35.0149 19.2155V20.5956L31.5101 18.2485C29.8631 17.1641 28.933 15.5493 28.933 13.9064C28.933 13.0567 29.1727 12.2353 29.5922 11.4702C29.772 11.9677 30.0717 12.4676 30.731 13.2023L34.4468 17.2509C35.0437 17.9246 35.0149 18.3353 35.0149 19.2155ZM32.258 12.3221C31.3279 11.3246 31.1505 10.7684 31.1505 10.1816C31.1505 9.62299 31.2704 9.12541 31.9895 8.21473L36.1848 2.87518L40.38 8.21473C41.0705 9.12541 41.2191 9.62299 41.2191 10.1816C41.2191 10.7684 41.0393 11.327 40.1116 12.3221L36.1824 16.6055L32.258 12.3221ZM40.8572 18.2485L37.3523 20.5956V19.2155C37.3523 18.3353 37.3235 17.9246 37.9229 17.2486L41.6386 13.1999C42.2979 12.4676 42.5976 11.9677 42.7774 11.4678C43.1969 12.2306 43.4366 13.052 43.4366 13.904C43.4342 15.5493 42.5065 17.1618 40.8572 18.2485Z" fill="var(--fill-0, #0064FF)"/>
</g>
<g id="Vector_2">
<path d="M5.96591e-05 28.903H3.21485C4.98644 28.903 6.12273 29.9897 6.12273 31.459C6.12273 32.9282 5.00079 34.0384 3.21485 34.0384H1.58465V37.0004H5.96591e-05V28.903ZM3.02545 32.825C3.87649 32.825 4.53814 32.3978 4.53814 31.4707C4.53814 30.5343 3.87649 30.1165 3.02545 30.1165H1.58465V32.8226H3.02545V32.825Z" fill="#030303"/>
<path d="M6.32157 34.0734C6.32157 32.3601 7.44352 30.973 9.26306 30.973C11.3775 30.973 12.3939 32.6628 12.159 34.4795H7.77437C7.87981 35.4512 8.38807 36.052 9.34696 36.052C10.0206 36.052 10.445 35.7398 10.6703 35.254H12.099C11.7562 36.5026 10.7518 37.1739 9.31101 37.1739C7.33802 37.1739 6.32157 35.8103 6.32157 34.0734ZM10.7518 33.4022C10.6224 32.6042 10.1381 32.0948 9.25106 32.0948C8.42401 32.0948 7.96372 32.6159 7.81032 33.4022H10.7518Z" fill="#030303"/>
<path d="M12.9551 31.1467H14.4079V32.2123C14.6788 31.6115 15.3309 31.1021 16.2873 31.1021H16.3713V32.4329H16.2873C14.8107 32.4329 14.4439 33.4398 14.4439 34.55V37.0027H12.9551V31.1467Z" fill="#030303"/>
<path d="M16.9609 31.1472H18.4136V32.0625C18.7445 31.3795 19.4301 30.9969 20.1852 30.9969C21.1058 30.9969 21.7459 31.3912 22.0647 32.0836C22.4675 31.4123 23.1987 30.9969 23.9922 30.9969C25.3754 30.9969 26.0946 31.8301 26.0946 33.2525V37.0007H24.6058V33.5083C24.6058 32.675 24.2631 32.1893 23.5295 32.1893C22.7384 32.1893 22.2781 32.8136 22.2781 33.8791V37.0031H20.7774V33.5083C20.7774 32.675 20.4466 32.1893 19.713 32.1893C18.9099 32.1893 18.4496 32.8136 18.4496 33.8791V37.0031H16.9609V31.1472Z" fill="#030303"/>
<path d="M26.8619 34.0732C26.8619 32.28 27.8423 30.9844 29.5084 30.9844C30.3595 30.9844 30.9974 31.367 31.4001 32.0265V31.1464H32.8525V36.9999H31.4001V36.1222C30.9974 36.7699 30.3595 37.1643 29.5084 37.1643C27.8423 37.1643 26.8619 35.8663 26.8619 34.0732ZM29.8632 35.9719C30.8438 35.9719 31.3761 35.1974 31.3761 34.0755C31.3761 32.9536 30.8438 32.1791 29.8632 32.1791C28.8827 32.1791 28.3505 32.9536 28.3505 34.0755C28.3505 35.1974 28.8947 35.9719 29.8632 35.9719Z" fill="#030303"/>
<path d="M34.387 32.3036H33.476V31.1465H34.387V29.5739H35.8873V31.1465H37.0816V32.3036H35.8873V37H34.387V32.3036Z" fill="#030303"/>
<path d="M37.3402 34.0732C37.3402 32.28 38.3206 30.9844 39.9868 30.9844C40.8381 30.9844 41.4755 31.367 41.8782 32.0265V31.1464H43.3311V36.9999H41.8782V36.1222C41.4755 36.7699 40.8381 37.1643 39.9868 37.1643C38.3206 37.1643 37.3402 35.8663 37.3402 34.0732ZM40.3415 35.9719C41.3219 35.9719 41.8542 35.1974 41.8542 34.0755C41.8542 32.9536 41.3219 32.1791 40.3415 32.1791C39.3612 32.1791 38.8289 32.9536 38.8289 34.0755C38.8289 35.1974 39.3729 35.9719 40.3415 35.9719Z" fill="#030303"/>
<path d="M49.6147 28.903C51.1273 28.903 52.1077 29.7714 52.1077 30.952C52.1077 31.7852 51.6474 32.3861 50.9257 32.6865C51.8703 32.9517 52.544 33.7051 52.544 34.6885C52.544 36.0428 51.5636 37.0028 49.8617 37.0028H46.2801V28.903H49.6147ZM49.3555 32.257C50.0654 32.257 50.5854 31.8861 50.5854 31.1468C50.5854 30.4075 50.0291 30.0719 49.3438 30.0719H47.8311V32.2593H49.3555V32.257ZM49.6147 35.8339C50.3598 35.8339 50.986 35.4631 50.986 34.6064C50.986 33.7615 50.3598 33.3695 49.5571 33.3695H47.8311V35.8339H49.6147Z" fill="#030303"/>
<path d="M53.0427 34.0732C53.0427 32.28 54.023 30.9844 55.6893 30.9844C56.54 30.9844 57.1779 31.367 57.5806 32.0265V31.1464H59.0335V36.9999H57.5806V36.1222C57.1779 36.7699 56.54 37.1643 55.6893 37.1643C54.023 37.1643 53.0427 35.8663 53.0427 34.0732ZM56.044 35.9719C57.0243 35.9719 57.5566 35.1974 57.5566 34.0755C57.5566 32.9536 57.0243 32.1791 56.044 32.1791C55.0636 32.1791 54.5313 32.9536 54.5313 34.0755C54.5313 35.1974 55.0754 35.9719 56.044 35.9719Z" fill="#030303"/>
<path d="M60.1243 31.1472H61.5766V32.0719C61.9196 31.3771 62.653 30.9969 63.4205 30.9969C64.8275 30.9969 65.5588 31.8301 65.5588 33.2525V37.0007H64.0701V33.5083C64.0701 32.675 63.7154 32.1893 62.9362 32.1893C62.0972 32.1893 61.6129 32.8136 61.6129 33.8791V37.0031H60.1243V31.1472Z" fill="#030303"/>
<path d="M68.1195 34.1557V37.0028H66.6303V28.903H68.1195V33.5549L70.2578 31.1492H72.0414L69.6081 33.799L72.3625 37.0028H70.5309L68.1195 34.1557Z" fill="#030303"/>
</g>
</g>
</svg>